<?xml version="1.0" encoding="utf-8"?>
<!-- Generator: Adobe Illustrator 23.0.2, SVG Export Plug-In . SVG Version: 6.00 Build 0)  -->
<svg version="1.1" id="Calque_1" xmlns="http://www.w3.org/2000/svg" xmlns:xlink="http://www.w3.org/1999/xlink" x="0px" y="0px"
	 viewBox="0 0 954.72 250.79" style="enable-background:new 0 0 954.72 250.79;" xml:space="preserve">
<style type="text/css">
	.st0{fill:#1C1C38;}
	.st1{fill:#FFFFFF;}
</style>
<g>
	<path class="st1" d="M86.25,11.59c-13.95,0-25.88,2.58-35.78,7.75c-9.9,5.17-17.35,11.85-22.35,20.02
		c-5,8.19-7.49,16.75-7.49,25.71c0,11.88,3.75,21.57,11.24,29.06c7.49,7.49,19.42,13.99,35.78,19.5
		c11.37,3.96,19.25,7.97,23.64,12.01c4.39,4.05,6.58,9.34,6.58,15.89c0,9.13-3.32,16.32-9.94,21.57
		c-6.63,5.26-15.72,7.88-27.26,7.88c-8.78,0-16.58-1.51-23.38-4.52c-5.75-2.54-11.1-6.1-16.05-10.68c-1.53-1.41-3.86-1.47-5.35-0.01
		L1.19,170.1c-1.53,1.49-1.6,3.99-0.09,5.49c14.86,14.84,34.47,22.26,58.81,22.26c16.7,0,30.57-2.93,41.59-8.78
		c11.02-5.85,19.12-13.39,24.28-22.6c5.17-9.21,7.75-18.9,7.75-29.06c0-13.44-3.96-23.94-11.88-31.52
		c-7.92-7.58-19.38-13.69-34.36-18.35c-8.44-2.75-14.85-5.34-19.24-7.75c-4.39-2.41-7.54-5-9.43-7.75
		c-1.9-2.76-2.84-6.21-2.84-10.34c0-7.4,2.88-13.26,8.65-17.56c5.77-4.31,13.3-6.46,22.6-6.46c7.23,0,13.77,1.2,19.63,3.61
		c5.12,2.11,10.11,5.27,14.96,9.49c1.18,1.03,2.95,1.04,4.07-0.05l14.88-14.48c1.23-1.2,1.25-3.23,0-4.41
		C126.27,18.34,108.16,11.59,86.25,11.59z"/>
	<path class="st1" d="M269.3,65.65c-15.94-7.78-32.33-11.66-49.18-11.66c-17.4,0-31.77,4.65-43.14,13.95
		c-11.37,9.3-19.68,20.92-24.93,34.87c-5.26,13.95-7.88,27.99-7.88,42.11c0,16.37,3.83,29.37,11.5,39.01
		c7.66,9.65,18.47,14.47,32.42,14.47c15.84,0,29.45-7.75,40.81-23.25c2.58,12.6,15.16,21.11,30.83,20.7
		c1.83-0.05,3.35-1.5,3.63-3.31l2.17-14.34c0.28-1.85-0.81-3.7-2.6-4.22c-1.28-0.37-1.94-1.12-2.64-2.18
		c-1.12-1.72-1.68-4.05-1.68-6.98c0-0.86,0.17-2.84,0.52-5.94l12.7-88.4C272.11,68.5,271.09,66.52,269.3,65.65z M228.13,144.84
		c-0.86,5.26-6.99,14.17-11.81,17.87c-4.82,3.71-13.34,7.3-19.19,7.3c-12.57,0-18.86-6.13-18.86-25.08
		c0-10.33,1.42-20.62,4.26-30.87c2.84-10.24,7.36-18.76,13.56-25.57s14.03-10.21,23.51-10.21c6.71,0,12.83,1.2,18.34,3.61
		L228.13,144.84z"/>
	<path class="st1" d="M470.98,87.32c0-10.34-2.76-18.47-8.27-24.41c-5.52-5.95-12.92-8.92-22.22-8.92c-8.1,0-15.85,2.33-23.25,6.98
		c-7.41,4.65-14.04,11.2-19.89,19.63c-1.21-8.44-4.52-14.98-9.95-19.63c-5.43-4.65-12.1-6.98-20.02-6.98
		c-16.36,0-30.91,9.3-43.66,27.9l3.03-19.58c0.36-2.34-1.45-4.45-3.81-4.45h-22.73c-1.92,0-3.55,1.42-3.82,3.32l-18.04,128.94
		c-0.32,2.32,1.48,4.39,3.82,4.39h24.76c1.93,0,3.56-1.42,3.82-3.33l9.01-65.24c0.96-6.96,3.11-13.76,6.57-19.88
		c9.41-16.64,18.27-24.96,26.58-24.96c3.61,0,6.41,1,8.4,2.98c1.98,1.98,2.97,5.55,2.97,10.72c0,1.21-0.17,3.53-0.52,6.98
		l-12.55,88.34c-0.33,2.32,1.47,4.4,3.82,4.4h24.76c1.92,0,3.55-1.41,3.82-3.31l9.69-67.81c0.85-5.94,2.78-11.75,5.76-16.96
		c9.65-16.89,18.73-25.33,27.22-25.33c3.62,0,6.42,1,8.4,2.98c1.98,1.98,2.97,5.55,2.97,10.72c0,1.21-0.18,3.53-0.52,6.98
		l-12.55,88.34c-0.33,2.32,1.47,4.4,3.82,4.4h24.76c1.92,0,3.55-1.41,3.82-3.32l13.48-95.11C470.8,94.03,470.98,91.11,470.98,87.32z
		"/>
	<path class="st1" d="M562.57,53.99c-14.81,0-28.42,6.63-40.81,19.89l1.65-11.62c0.33-2.32-1.47-4.4-3.82-4.4h-22.64
		c-1.92,0-3.55,1.42-3.82,3.32L467.16,246.4c-0.35,2.51,1.76,4.66,4.28,4.37l24.64-2.93c1.73-0.21,3.11-1.55,3.36-3.27l7.32-50.29
		c8.27,2.75,16.7,4.13,25.32,4.13c16.88,0,30.74-4.6,41.59-13.82c10.85-9.21,18.73-20.75,23.64-34.61
		c4.91-13.87,7.36-28.03,7.36-42.5c0-17.05-3.71-30.23-11.11-39.52C586.16,58.64,575.83,53.99,562.57,53.99z M566.96,137.69
		c-2.76,10.16-7.15,18.68-13.17,25.58c-6.03,6.89-13.61,10.33-22.73,10.33c-6.72,0-13.52-1.2-20.41-3.61l10.08-73.63
		c4.82-5.51,9.69-9.81,14.59-12.92c4.91-3.1,10.2-4.64,15.89-4.64c13.26,0,19.89,9.39,19.89,28.15
		C571.09,117.28,569.71,127.53,566.96,137.69z"/>
	<path class="st1" d="M905.71,69.37c-9.56-10.25-23.12-15.38-40.69-15.38c-17.22,0-31.35,4.49-42.37,13.44
		c-11.02,8.96-18.99,20.07-23.89,33.32c-4.91,13.26-7.37,26.61-7.37,40.04c0,1.18,0.02,2.34,0.06,3.48
		c-9.09,6.76-32.11,19.85-36.78,22.36c-5.3,2.85-11.01,4.77-17.13,5.74c-16.84,2.69-27.09-5.26-30.76-23.86
		c26.1-6.96,46.43-15.61,61-25.96c14.57-10.35,20.46-24.19,17.69-41.54c-1.03-6.46-3.77-12.12-8.21-17
		c-4.44-4.87-10.45-8.36-18.02-10.47c-7.57-2.1-16.3-2.37-26.15-0.8c-17.01,2.72-30.29,9.38-39.85,19.97
		c-9.56,10.6-15.8,22.88-18.7,36.87c-2.91,13.98-3.28,27.78-1.11,41.38c0.69,4.33,1.64,8.38,2.84,12.15
		c-7.39,2.88-19.18,7.48-19.53,7.58c-2.66,0.73-4.71,1.1-6.16,1.1c-2.07,0-3.61-0.52-4.65-1.55c-1.03-1.03-1.55-2.75-1.55-5.16
		l0.26-2.84L666.94,4.4c0.35-2.49-1.74-4.65-4.24-4.37l-25.15,2.75c-1.75,0.19-3.15,1.55-3.4,3.3l-21.8,154.87
		c-0.35,2.07-0.51,4.91-0.51,8.53c0,9.48,2.49,16.66,7.49,21.57c4.99,4.91,12.05,7.36,21.18,7.36c7.61,0,14.76-1.44,21.46-4.34
		c0.34-0.15,18.16-7.05,25.91-10.07c1.96,2.16,4.09,4.14,6.42,5.9c11.11,8.43,25.68,11.2,43.71,8.32
		c13.9-2.22,41.03-15.33,59.2-27.72c2.21,4.74,5.05,8.97,8.53,12.67c9.56,10.17,23.12,15.24,40.69,15.24
		c17.39,0,31.6-4.52,42.62-13.56c11.02-9.04,18.94-20.19,23.77-33.46c4.82-13.26,7.23-26.6,7.23-40.04
		C920.05,93.61,915.27,79.61,905.71,69.37z M711.92,93.02c4.68-9.47,12.38-15.06,23.09-16.77c5.44-0.87,9.58-0.09,12.41,2.34
		c2.83,2.42,4.53,5.42,5.1,9c1.38,8.67-1.78,16.2-9.48,22.57c-7.71,6.38-20.43,11.86-38.19,16.43
		C704.89,113.68,707.25,102.49,711.92,93.02z M882.85,136.91c-2.24,9.99-6.2,18.56-11.88,25.71c-5.68,7.14-13.26,10.72-22.73,10.72
		c-15.5,0-23.25-9.99-23.25-29.97c0-9.3,1.16-18.86,3.49-28.67c2.32-9.82,6.33-18.21,12.01-25.19c5.68-6.98,13.26-10.47,22.73-10.47
		c15.33,0,22.99,9.56,22.99,28.68C886.21,117.2,885.08,126.93,882.85,136.91z"/>
	<path class="st1" d="M950.21,166.5c-3.01-3.08-6.91-4.62-11.72-4.62c-5.56,0-10.26,1.95-14.09,5.86c-3.83,3.91-5.75,8.64-5.75,14.2
		c0,4.66,1.54,8.56,4.62,11.72c3.08,3.15,6.95,4.73,11.61,4.73c5.56,0,10.25-1.99,14.09-5.97c3.83-3.98,5.75-8.76,5.75-14.32
		C954.72,173.45,953.22,169.58,950.21,166.5z"/>
</g>
</svg>
