<?xml version="1.0" encoding="utf-8"?>
<svg xmlns="http://www.w3.org/2000/svg" viewBox="0 0 960 161.19"><defs><style>.cls-1{fill:#0028be;}</style></defs><g id="Calque_2" data-name="Calque 2"><g id="Calque_1-2" data-name="Calque 1"><path class="cls-1" d="M231.71,130.84c9.24,0,17.14-3.61,21.65-8.57l27.07,15.56c-11.05,15.34-27.75,23.24-49.18,23.24-38.57,0-62.48-25.94-62.48-59.56S193.13,42,228.77,42c32.94,0,57.3,25.49,57.3,59.55a65.79,65.79,0,0,1-1.35,13.54H204.64C208.92,126.78,219.3,130.84,231.71,130.84Zm20.75-41.06C248.85,76.7,238.7,72,228.55,72c-12.86,0-21.43,6.32-24.59,17.82Z"/><path class="cls-1" d="M415.22,101.51c0,33.62-24.36,59.56-53.92,59.56-15.11,0-26.16-5.19-33.61-13.76v10.6H293.86V0h33.83V55.72C335.14,47.15,346.19,42,361.3,42,390.86,42,415.22,67.9,415.22,101.51Zm-33.84,0C381.38,84.59,370.1,74,354.54,74s-26.85,10.6-26.85,27.52S339,129,354.54,129,381.38,118.43,381.38,101.51Z"/><path class="cls-1" d="M482.05,130.84c9.25,0,17.14-3.61,21.65-8.57l27.07,15.56c-11,15.34-27.74,23.24-49.17,23.24-38.58,0-62.49-25.94-62.49-59.56S443.47,42,479.11,42c32.94,0,57.3,25.49,57.3,59.55a65.79,65.79,0,0,1-1.35,13.54H455C459.26,126.78,469.64,130.84,482.05,130.84ZM502.8,89.78C499.19,76.7,489,72,478.89,72,466,72,457.46,78.28,454.3,89.78Z"/><path class="cls-1" d="M661.67,0V157.91H627.83v-10.6c-7.44,8.57-18.5,13.76-33.61,13.76-29.55,0-53.91-25.94-53.91-59.56S564.67,42,594.22,42c15.11,0,26.17,5.19,33.61,13.76V0ZM627.83,101.51C627.83,84.59,616.55,74,601,74s-26.85,10.6-26.85,27.52S585.42,129,601,129,627.83,118.43,627.83,101.51Z"/><path class="cls-1" d="M673.38,45.12h33.83V157.91H673.38Z"/><path class="cls-1" d="M836.38,45.12V157.91H802.54v-10.6c-7.44,8.57-18.49,13.76-33.61,13.76-29.55,0-53.91-25.94-53.91-59.56S739.38,42,768.93,42c15.12,0,26.17,5.19,33.61,13.76V45.12Zm-33.84,56.39C802.54,84.59,791.26,74,775.7,74s-26.84,10.6-26.84,27.52S760.13,129,775.7,129,802.54,118.43,802.54,101.51Z"/><polygon class="cls-1" points="139.65 45.12 122.19 101.51 104.73 45.12 69.82 45.12 52.37 101.51 34.91 45.12 0 45.12 34.91 157.91 69.82 157.91 87.28 101.51 104.73 157.91 139.65 157.91 174.56 45.12 139.65 45.12"/><path class="cls-1" d="M690.6,35.19A17.21,17.21,0,0,1,677.89,30a17.42,17.42,0,0,1-5.19-12.78,16.39,16.39,0,0,1,5.19-12.07A17.39,17.39,0,0,1,690.6,0a16.58,16.58,0,0,1,12.2,5.12,16.56,16.56,0,0,1,5.09,12.07A17.61,17.61,0,0,1,702.8,30,16.42,16.42,0,0,1,690.6,35.19Z"/><polygon class="cls-1" points="921.81 45.12 886.9 157.91 851.99 157.91 886.9 45.12 921.81 45.12"/><path class="cls-1" d="M941.24,161.19a18.69,18.69,0,0,1-13.8-5.66,18.93,18.93,0,0,1-5.63-13.87,17.81,17.81,0,0,1,5.63-13.1,18.91,18.91,0,0,1,13.8-5.55A18.9,18.9,0,0,1,960,141.66a19.11,19.11,0,0,1-5.52,13.87A17.81,17.81,0,0,1,941.24,161.19Z"/></g></g></svg>