<svg width="80" height="80" fill="#ffffff" viewBox="0 0 24 24" xmlns="http://www.w3.org/2000/svg">
   <path d="M9 4.5v2.25H4.5V9H2.25v2.25h-.703a.75.75 0 0 0-.586.305s-.065.079-.094.14c-.03.062-.05.156-.07.235-.044.16-.07.343-.07.61 0 .515.061 1.086.21 1.663a4.525 4.525 0 0 0-.187.047h.21c.156.58.394 1.163.728 1.734.008.015.014.033.023.047v.024c.044.181.152.34.305.445l.023.023c.126.176.252.35.398.516 1.228 1.412 3.209 2.484 6.024 2.484 4.324 0 8.068-1.78 10.312-5.273h3.797c-.474-.12-1.506-.293-1.336-.914-.524.606-1.494.735-2.297.633.264-.437.51-.897.727-1.383 1.242-.073 2.186-.492 2.719-1.008.61-.589.797-1.265.797-1.265a.75.75 0 0 0-.235-.774s-1.134-.794-2.765-.633c-.56-1.494-1.735-2.226-1.735-2.226a.754.754 0 0 0-.515-.094.74.74 0 0 0-.328.164s-.343.305-.61.797a3.847 3.847 0 0 0-.422 2.18c.032.345.244.65.375.984-.093.059-.181.126-.304.187a3.516 3.516 0 0 1-1.57.352H15V9h-2.25V4.5H9ZM10.5 6h.75v.75h-.75V6ZM6 8.25h.75V9H6v-.75Zm2.25 0H9V9h-.75v-.75Zm2.25 0h.75V9h-.75v-.75Zm7.758.234c.27.305.562.736.68 1.36a.753.753 0 0 0 .938.586c.679-.185 1.174-.126 1.522-.024-.04.05-.014.041-.07.094-.343.331-.917.7-2.11.656a.756.756 0 0 0-.726.469 11.25 11.25 0 0 1-1.195 2.25c-1.108.43-3.571.114-3.774-.445-.732.858-2.99.858-3.726 0-.237.659-3.656.964-4.242.117-.472.44-2.189.732-3.164.07a5.671 5.671 0 0 1-.118-.867H15.07a5.04 5.04 0 0 0 2.227-.516 5.254 5.254 0 0 0 .914-.562.737.737 0 0 0 .352-.504.74.74 0 0 0-.141-.598c-.2-.26-.314-.58-.352-.984a2.051 2.051 0 0 1 .188-1.102ZM3.75 10.5h.75v.75h-.75v-.75Zm2.25 0h.75v.75H6v-.75Zm2.25 0H9v.75h-.75v-.75Zm2.25 0h.75v.75h-.75v-.75Zm2.25 0h.75v.75h-.75v-.75ZM2.555 14.25h14.46c-1.974 2.555-4.96 3.773-8.554 3.773-1.884 0-3.205-.506-4.149-1.242 1.594-.055 2.743-.468 2.743-.468a.752.752 0 1 0-.375-1.454c-.041.012-.08.03-.117.047 0 0-1.644.54-3.586.305a5.299 5.299 0 0 1-.422-.961Zm5.484.14a.45.45 0 0 0-.445.446c0 .24.205.445.445.445.24 0 .422-.205.422-.445a.437.437 0 0 0-.024-.164.19.19 0 0 1-.164.094c-.1 0-.164-.088-.164-.188 0-.067.018-.111.07-.14-.05-.021-.084-.047-.14-.047Z"></path>
</svg>