<svg width="80" height="80" fill="#ffffff" viewBox="0 0 24 24" xmlns="http://www.w3.org/2000/svg">
   <path d="M12 2.25c-5.376 0-9.75 4.374-9.75 9.75s4.374 9.75 9.75 9.75 9.75-4.374 9.75-9.75S17.376 2.25 12 2.25Zm0 1.5c4.549 0 8.25 3.701 8.25 8.25 0 4.549-3.701 8.25-8.25 8.25-4.549 0-8.25-3.701-8.25-8.25 0-4.549 3.701-8.25 8.25-8.25Zm3.204 3.807c-.055.002-1.885-.1-2.96 3.048-.29-.239-1.669-1.882-3.194-.745-.548.41-.91 1.385-.087 2.303.49.524.772.732.643 1.151-.264.861-1.605.466-1.473.04.039-.128.101-.13.181-.378.224-.732-.783-1.09-1-.393-.125.406.069 1.14 1.109 1.462 1.218.374 2.249-.29 2.395-1.154.093-.542-.152-.944-.6-1.462l-.365-.405c-.222-.222-.298-.598-.07-.887.193-.245.468-.348.92-.226.657.179.95.635 1.44 1.004-.036.115-.29.934-.527 2.368-.35 1.835-.617 2.842-1.31 3.42-.14.1-.34.25-.641.26-.056.002-.408-.081-.059-.362.44-.24.202-1.005-.43-.983-.285.01-.718.277-.702.768.017.507.489.887 1.201.863.381-.013 1.23-.168 2.069-1.164 1.15-1.35 1.37-2.953 1.681-4.672 1.493.177 2.232-.516 2.243-1.032.016-.702-.81-.677-.926-.152-.055.255.39.485.043.709-.246.159-.686.27-1.306.18.298-1.642.553-3.252 1.703-3.29.078-.004.365.004.372.193.003.156-.197.28-.19.545.012.302.24.499.572.487.443-.016.57-.446.563-.668-.02-.522-.569-.851-1.295-.828Z"></path>
</svg>